<svg xmlns="http://www.w3.org/2000/svg" viewBox="0 0 64 64" fill="none">
  <defs>
    <linearGradient id="bGrad" x1="0%" y1="0%" x2="0%" y2="100%">
      <stop offset="0%" stop-color="#FBAB18"/>
      <stop offset="100%" stop-color="#E67300"/>
    </linearGradient>
    <linearGradient id="checkGrad" x1="0%" y1="0%" x2="0%" y2="100%">
      <stop offset="0%" stop-color="#CDDC39"/>
      <stop offset="100%" stop-color="#4CAF50"/>
    </linearGradient>
    <filter id="s">
      <feDropShadow dx="0" dy="1" stdDeviation="1" flood-color="#A55000" flood-opacity="0.4"/>
    </filter>
  </defs>

  <!-- B letter -->
  <g filter="url(#s)">
    <path d="
      M 18 6 L 18 58 L 38 58
      C 48 58, 52 51, 52 43
      C 52 36, 48 32, 42 30
      C 47 28, 50 24, 50 19
      C 50 10, 44 6, 36 6 Z
      M 27 14 L 34 14 C 39 14, 42 17, 42 21 C 42 25, 39 28, 34 28
      L 27 28 L 27 24 L 34 17 L 27 17 Z
      M 27 36 L 36 36 C 42 36, 44 40, 44 44 C 44 49, 41 50, 36 50 L 27 50 Z
    " fill="url(#bGrad)" stroke="#B85C00" stroke-width="1" fill-rule="evenodd"/>
  </g>

  <!-- Checkmark -->
  <path d="M 12 32 L 25 45 L 44 18" stroke="white" stroke-width="7" stroke-linecap="round" stroke-linejoin="round" fill="none"/>
  <path d="M 12 32 L 25 45 L 44 18" stroke="url(#checkGrad)" stroke-width="5" stroke-linecap="round" stroke-linejoin="round" fill="none"/>
</svg>
